<?xml version="1.0" standalone="no"?>
<!DOCTYPE svg PUBLIC "-//W3C//DTD SVG 20010904//EN"
 "http://www.w3.org/TR/2001/REC-SVG-20010904/DTD/svg10.dtd">
<svg version="1.0" xmlns="http://www.w3.org/2000/svg"
 width="512.000000pt" height="512.000000pt" viewBox="0 0 512.000000 512.000000"
 preserveAspectRatio="xMidYMid meet">

<g transform="translate(0.000000,512.000000) scale(0.100000,-0.100000)"
fill="#ffffff" stroke="none">
<path d="M336 4790 c-78 -24 -160 -116 -171 -194 -3 -22 -5 -342 -3 -711 3
-746 -2 -695 73 -770 69 -68 75 -70 333 -73 l232 -3 0 -297 0 -297 298 297
297 298 735 2 c819 3 759 -2 835 73 75 76 70 19 70 805 0 786 5 729 -70 805
-77 76 46 70 -1350 72 -687 1 -1263 -2 -1279 -7z m2524 -170 c20 -20 20 -33
20 -700 0 -667 0 -680 -20 -700 -20 -20 -33 -20 -777 -20 l-758 0 -182 -182
-183 -183 0 183 0 182 -300 0 c-287 0 -301 1 -320 20 -20 20 -20 33 -20 700 0
667 0 680 20 700 20 20 33 20 1260 20 1227 0 1240 0 1260 -20z"/>
<path d="M736 4550 c-77 -23 -158 -114 -171 -191 -15 -89 29 -183 111 -238
109 -72 246 -40 323 75 52 80 53 168 0 247 -61 93 -167 135 -263 107z m124
-170 c13 -13 20 -33 20 -60 0 -53 -27 -80 -80 -80 -53 0 -80 27 -80 80 0 53
27 80 80 80 27 0 47 -7 60 -20z"/>
<path d="M1280 4240 l0 -80 720 0 720 0 0 80 0 80 -720 0 -720 0 0 -80z"/>
<path d="M712 3986 c-60 -20 -119 -62 -164 -119 -60 -77 -68 -119 -68 -369 l0
-218 80 0 80 0 0 221 c0 245 5 270 64 312 46 32 148 32 195 -2 52 -37 61 -71
61 -231 l0 -140 -120 0 -120 0 0 -80 0 -80 201 0 200 0 -3 238 c-3 228 -4 239
-28 287 -31 64 -101 134 -163 164 -60 29 -155 36 -215 17z"/>
<path d="M1280 3920 l0 -80 720 0 720 0 0 80 0 80 -720 0 -720 0 0 -80z"/>
<path d="M1280 3600 l0 -80 520 0 520 0 0 80 0 80 -520 0 -520 0 0 -80z"/>
<path d="M3200 4160 l0 -80 780 0 c767 0 780 0 800 -20 20 -20 20 -33 20 -700
0 -667 0 -680 -20 -700 -19 -19 -33 -20 -320 -20 l-300 0 0 -182 0 -183 -183
183 -182 182 -758 0 c-892 0 -797 -17 -797 140 l0 100 -81 0 -81 0 4 -112 c4
-125 14 -153 73 -213 76 -75 16 -70 835 -73 l735 -2 298 -298 297 -297 0 297
0 297 233 3 c257 3 263 5 332 73 75 76 70 19 70 805 0 786 5 729 -70 805 -76
75 -9 70 -892 73 l-793 2 0 -80z"/>
<path d="M4256 3990 c-77 -23 -158 -114 -171 -191 -15 -89 29 -183 111 -238
109 -72 246 -40 323 75 52 80 53 168 0 247 -61 93 -167 135 -263 107z m124
-170 c13 -13 20 -33 20 -60 0 -27 -7 -47 -20 -60 -13 -13 -33 -20 -60 -20 -27
0 -47 7 -60 20 -13 13 -20 33 -20 60 0 27 7 47 20 60 13 13 33 20 60 20 27 0
47 -7 60 -20z"/>
<path d="M3200 3680 l0 -80 320 0 320 0 0 80 0 80 -320 0 -320 0 0 -80z"/>
<path d="M3200 3360 l0 -80 320 0 320 0 0 80 0 80 -320 0 -320 0 0 -80z"/>
<path d="M4234 3426 c-59 -19 -130 -70 -169 -124 -58 -78 -65 -118 -65 -364
l0 -218 200 0 200 0 0 80 0 80 -120 0 -120 0 0 143 c0 157 10 192 63 231 22
16 43 21 97 21 79 0 113 -18 142 -76 16 -29 18 -64 18 -256 l0 -223 81 0 80 0
-3 238 c-3 228 -4 239 -28 287 -32 65 -105 138 -171 170 -60 28 -136 32 -205
11z"/>
<path d="M3360 3040 l0 -80 240 0 240 0 0 80 0 80 -240 0 -240 0 0 -80z"/>
<path d="M1042 2408 c4 -169 9 -189 73 -253 69 -68 75 -70 333 -73 l232 -3 0
-297 0 -297 298 298 297 297 703 0 702 0 0 80 0 80 -737 0 -738 0 -182 -182
-183 -183 0 183 0 182 -300 0 c-287 0 -301 1 -320 20 -18 18 -20 33 -20 160
l0 140 -81 0 -81 0 4 -152z"/>
<path d="M1072 1583 c-12 -10 -53 -91 -93 -180 l-71 -163 -190 0 c-187 0 -189
0 -213 -25 -30 -29 -33 -74 -8 -103 13 -14 267 -239 290 -256 1 -1 -23 -82
-53 -181 -29 -99 -54 -190 -54 -203 0 -31 43 -72 75 -72 15 0 102 42 196 94
l169 95 169 -95 c94 -52 181 -94 196 -94 31 0 75 41 75 70 0 11 -23 98 -51
192 -29 95 -52 178 -53 184 -1 5 60 63 134 128 74 65 143 127 153 138 25 29
22 74 -8 103 -24 25 -26 25 -213 25 l-190 0 -71 163 c-40 89 -81 170 -93 180
-11 9 -33 17 -48 17 -15 0 -37 -8 -48 -17z m98 -373 c24 -55 50 -106 58 -113
9 -7 60 -14 125 -17 l110 -5 -87 -75 c-48 -41 -89 -85 -93 -98 -3 -14 8 -69
27 -134 17 -60 30 -111 28 -113 -2 -2 -46 21 -98 50 -52 30 -106 54 -120 54
-14 0 -68 -24 -120 -54 -52 -29 -97 -52 -99 -49 -2 2 11 53 29 113 19 65 30
119 27 133 -4 13 -45 57 -93 98 l-87 75 110 5 c65 3 116 10 125 17 8 7 34 58
58 113 24 55 46 100 50 100 4 0 26 -45 50 -100z"/>
<path d="M2512 1583 c-12 -10 -53 -91 -93 -180 l-71 -163 -190 0 c-187 0 -189
0 -213 -25 -30 -29 -33 -74 -7 -103 12 -14 266 -239 289 -256 1 -1 -23 -82
-53 -181 -29 -99 -54 -190 -54 -203 0 -31 43 -72 75 -72 15 0 102 42 196 94
l169 95 169 -95 c94 -52 181 -94 196 -94 32 0 75 41 75 72 0 13 -25 104 -55
203 -30 98 -53 180 -52 181 28 21 277 242 290 256 25 29 22 74 -8 103 -24 25
-26 25 -213 25 l-190 0 -71 163 c-40 89 -81 170 -93 180 -11 9 -33 17 -48 17
-15 0 -37 -8 -48 -17z m98 -373 c24 -55 50 -106 58 -113 9 -7 60 -14 125 -17
l110 -5 -87 -75 c-48 -41 -89 -85 -93 -98 -3 -14 8 -69 27 -134 17 -60 30
-111 28 -113 -2 -2 -46 21 -98 50 -52 30 -106 54 -120 54 -14 0 -68 -24 -120
-54 -52 -29 -96 -52 -98 -50 -2 2 10 53 28 114 19 63 30 120 27 134 -4 12 -45
56 -93 97 l-87 75 110 5 c65 3 116 10 125 17 8 7 34 58 58 113 24 55 46 100
50 100 4 0 26 -45 50 -100z"/>
<path d="M3952 1583 c-12 -10 -53 -91 -93 -180 l-71 -163 -190 0 c-187 0 -189
0 -213 -25 -30 -29 -33 -74 -7 -103 12 -14 266 -239 289 -256 1 -1 -23 -82
-53 -181 -29 -99 -54 -190 -54 -203 0 -31 43 -72 75 -72 15 0 102 42 196 94
l169 95 169 -95 c94 -52 181 -94 196 -94 31 0 75 41 75 70 0 12 -25 103 -55
203 -30 99 -53 182 -52 183 31 23 277 242 290 256 25 29 22 74 -8 103 -24 25
-26 25 -213 25 l-190 0 -71 163 c-40 89 -81 170 -93 180 -11 9 -33 17 -48 17
-15 0 -37 -8 -48 -17z m98 -373 c24 -55 50 -106 58 -113 9 -7 60 -14 125 -17
l110 -5 -87 -75 c-48 -41 -89 -85 -93 -98 -3 -14 8 -69 27 -134 17 -60 30
-111 28 -113 -2 -2 -46 21 -98 50 -52 30 -106 54 -120 54 -14 0 -68 -24 -120
-54 -52 -29 -96 -52 -98 -50 -2 2 10 53 28 114 19 63 30 120 27 134 -4 12 -45
56 -93 97 l-87 75 110 5 c65 3 116 10 125 17 8 7 34 58 58 113 24 55 46 100
50 100 4 0 26 -45 50 -100z"/>
</g>
</svg>
